<svg fill="none" height="24" viewBox="0 0 24 24" width="24" xmlns="http://www.w3.org/2000/svg"><g stroke="#17191c" stroke-miterlimit="10" stroke-width="1.5"><path d="m22 5.7c0 1.7-.8 3.3-2.3 4.2-1.3.8-3.2 1.6-5.7 1.9v-6.1c0-2 1.7-3.7 3.7-3.7h.5c2.1 0 3.8 1.7 3.8 3.7z"/><path d="m22.0001 8v10.3c0 2.1-1.7 3.7-3.7 3.7h-.5c-2.1 0-3.7-1.7-3.7-3.7v-6.4c5.5-.7 7.9-3.9 7.9-3.9z"/><path d="m2 18.3c0-1.7.8-3.3 2.3-4.2 1.3-.8 3.2-1.6 5.7-1.9v6.1c0 2.1-1.7 3.7-3.7 3.7h-.6c-2 0-3.7-1.7-3.7-3.7z"/><path d="m2 16v-10.3c0-2 1.7-3.7 3.7-3.7h.5c2.1 0 3.8 1.7 3.8 3.7v6.4c-5.6.7-8 3.9-8 3.9z"/><path d="m10 12.0999c.6-.1 1.3-.1 2-.1s1.4 0 2-.1"/></g></svg>