<svg width="47" height="52" viewBox="0 0 47 52" fill="none" xmlns="http://www.w3.org/2000/svg">
<g clip-path="url(#clip0_3003_75)">
<path fill-rule="evenodd" clip-rule="evenodd" d="M17.5887 2.96762C14.4409 4.57951 11.8656 5.9435 11.8662 5.99897C11.8676 6.14216 19.4209 9.9025 19.689 9.89334C19.8109 9.88932 20.6956 9.489 21.6548 9.00385L23.3991 8.1219L25.3041 9.08449L27.209 10.0472L30.3287 8.66924C35.0294 6.59281 35.5176 6.36527 35.441 6.28882C35.3395 6.18739 33.6535 5.297 29.0791 2.92964C26.8684 1.78547 24.7227 0.663642 24.3108 0.436641C23.8989 0.209641 23.5057 0.0270333 23.437 0.030568C23.3683 0.0341028 20.7365 1.35579 17.5887 2.96762ZM3.78268 9.99548L0.505912 11.6593V18.9616C0.505912 22.9779 0.548939 26.2638 0.601717 26.2638C0.654313 26.2638 2.26649 25.5768 4.18425 24.7371L7.67109 23.2105V15.5134L9.37499 16.426C10.688 17.1285 12.0018 17.8297 13.3164 18.5294L15.5538 19.7202L16.5494 19.2777C17.1738 18.9997 17.7969 18.719 18.4188 18.4356C18.8994 18.2156 20.079 17.6933 21.0402 17.2747C22.0013 16.8559 22.8911 16.4348 23.0172 16.3388C23.1848 16.2113 21.1412 15.1012 15.4585 12.2325C11.175 10.0702 7.53287 8.30786 7.3649 8.31631C7.19694 8.32476 5.58495 9.08029 3.78268 9.99548ZM36.0316 10.4627C33.7999 11.4531 31.9724 12.303 31.9703 12.3515C31.9684 12.3999 33.1847 13.1108 34.6735 13.9311C36.1621 14.7516 37.3802 15.4668 37.3802 15.5206C37.3802 15.5744 36.0629 16.2018 34.453 16.9152C32.8429 17.6284 28.7733 19.4351 25.4092 20.9301L14.1372 25.9387C11.3017 27.1987 8.74586 28.3345 8.45753 28.4628C2.66592 31.0401 1.07404 31.7553 0.855431 31.878C0.635603 32.0016 0.585811 32.7197 0.546684 36.3235L0.5 40.6217L3.43024 42.0894L6.36041 43.557L10.4236 41.7544C12.6583 40.7631 14.4867 39.9 14.4867 39.8364C14.4867 39.773 14.0737 39.5085 13.5692 39.2484C13.0645 38.9883 12.0226 38.4124 11.2536 37.9685C10.4847 37.5245 9.71805 37.1172 9.54972 37.0631C9.38145 37.0093 9.24622 36.915 9.24896 36.8535C9.25176 36.7923 11.041 35.9568 13.2248 34.9969C17.4664 33.1326 20.7123 31.6958 27.681 28.5979C30.7972 27.2129 33.9137 25.8288 37.0307 24.4455C39.77 23.23 42.955 21.8104 44.1085 21.2909L46.2056 20.3463L46.2522 15.9991L46.2991 11.6521L43.3271 10.1526C41.6924 9.3279 40.2952 8.65517 40.2219 8.65762C40.1487 8.6599 38.2631 9.47211 36.0316 10.4627ZM45.4093 26.1456C44.9714 26.3559 44.1063 26.7496 43.487 27.0205C42.8677 27.2913 41.6924 27.8126 40.8754 28.1791L39.3899 28.8451L39.356 32.6615C39.3373 34.7605 39.2587 36.4686 39.1813 36.4575C39.0055 36.4318 36.2214 35.0282 33.4228 33.554C31.4029 32.4902 31.276 32.4479 30.8014 32.679C30.527 32.8126 28.8869 33.5357 27.1568 34.2861C25.4266 35.0363 23.9547 35.6992 23.8854 35.7592C23.8164 35.8191 27.2985 37.6744 31.6236 39.8822L39.4873 43.8964L42.8465 42.1882C44.6939 41.2488 46.2648 40.3919 46.3372 40.2841C46.5 40.0417 46.486 25.73 46.323 25.7494C46.2585 25.757 45.8473 25.9353 45.4093 26.1456ZM26.8073 42.944C26.2246 43.1902 25.642 43.4369 25.0597 43.6838C23.301 44.4317 23.6457 44.4566 21.5534 43.4327C20.1599 42.7508 19.5593 42.5404 19.2985 42.6425C19.103 42.7191 17.4199 43.4635 15.558 44.2966C13.6962 45.1298 12.1084 45.8115 12.0294 45.8115C11.2483 45.8115 12.5469 46.5742 17.558 49.0591L23.4348 51.9729L25.9074 50.7729C27.2674 50.1129 30.0104 48.7912 32.0032 47.8359C33.9958 46.8803 35.6015 46.0737 35.5715 46.0433C35.5412 46.013 33.8715 45.1701 31.861 44.1704L28.2054 42.3528L26.8073 42.944Z" fill="#989898"/>
</g>
<defs>
<clipPath id="clip0_3003_75">
<rect width="46" height="52" fill="white" transform="translate(0.5)"/>
</clipPath>
</defs>
</svg>
