<svg width="73" height="72" viewBox="0 0 73 72" fill="none" xmlns="http://www.w3.org/2000/svg">
<path d="M26 51.75L23 57.75C19.1787 56.1577 15.2217 54.5655 11.015 51.825C9.54799 50.8691 8.65849 49.245 8.62324 47.4945C8.44024 38.508 10.5485 29.4735 15.8866 19.9215C16.5852 18.6712 17.7492 17.7548 19.0992 17.2755C22.3197 16.1325 24.506 15.249 28.25 14.625L30.5 18.75C30.5 18.75 32.75 18 36.5 18C40.25 18 42.5 18.75 42.5 18.75L44.75 14.625C48.494 15.249 50.6802 16.1325 53.9007 17.2755C55.2507 17.7548 56.4147 18.6712 57.1134 19.9215C62.4515 29.4735 64.5597 38.508 64.3771 47.4945C64.3415 49.245 63.452 50.8691 61.985 51.825C57.7782 54.5655 53.8216 56.1577 50 57.75L47 51.75M21.5 48.75C21.5 48.75 29 52.5 36.5 52.5C44 52.5 51.5 48.75 51.5 48.75" stroke="#989898" stroke-width="5" stroke-linecap="round" stroke-linejoin="round"/>
<path d="M27.125 43.5C29.8174 43.5 32 40.9816 32 37.875C32 34.7684 29.8174 32.25 27.125 32.25C24.4326 32.25 22.25 34.7684 22.25 37.875C22.25 40.9816 24.4326 43.5 27.125 43.5Z" fill="#989898"/>
<path d="M45.875 43.5C48.5674 43.5 50.75 40.9816 50.75 37.875C50.75 34.7684 48.5674 32.25 45.875 32.25C43.1826 32.25 41 34.7684 41 37.875C41 40.9816 43.1826 43.5 45.875 43.5Z" fill="#989898"/>
</svg>
